<svg xmlns="http://www.w3.org/2000/svg" width="247.927" height="35" viewBox="0 0 247.927 35">
  <g id="Group_37" data-name="Group 37" transform="translate(-187 -1927)">
    <g id="Group_36" data-name="Group 36">
      <g id="Rectangle_159" data-name="Rectangle 159" transform="translate(195 1939)" fill="none" stroke="#49b2f8" stroke-width="3">
        <path d="M1.833,0H20.167A1.833,1.833,0,0,1,22,1.833V12A11,11,0,0,1,11,23h0A11,11,0,0,1,0,12V1.833A1.833,1.833,0,0,1,1.833,0Z" stroke="none"/>
        <path d="M3.017,1.5H18.983A1.517,1.517,0,0,1,20.5,3.017V12A9.5,9.5,0,0,1,11,21.5h0A9.5,9.5,0,0,1,1.5,12V3.017A1.517,1.517,0,0,1,3.017,1.5Z" fill="none"/>
      </g>
      <rect id="Rectangle_160" data-name="Rectangle 160" width="38" height="15" rx="7.5" transform="translate(187 1939)" fill="#fff"/>
      <g id="Rectangle_158" data-name="Rectangle 158" transform="translate(194.969 1927)" fill="none" stroke="#49b2f8" stroke-width="3">
        <path d="M11.156,0h0A11.156,11.156,0,0,1,22.313,11.156v8.616a.744.744,0,0,1-.744.744H.744A.744.744,0,0,1,0,19.772V11.156A11.156,11.156,0,0,1,11.156,0Z" stroke="none"/>
        <path d="M11.156,1.5h0a9.656,9.656,0,0,1,9.656,9.656v7.5a.358.358,0,0,1-.358.358H1.858a.358.358,0,0,1-.358-.358v-7.5A9.656,9.656,0,0,1,11.156,1.5Z" fill="none"/>
      </g>
      <rect id="Rectangle_161" data-name="Rectangle 161" width="24.703" height="9.563" transform="translate(193.375 1937.156)" fill="#fff"/>
      <g id="Rectangle_162" data-name="Rectangle 162" transform="translate(187 1936.359)" fill="none" stroke="#49b2f8" stroke-width="3">
        <path d="M6,0H32.25a6,6,0,0,1,6,6v4.75a2,2,0,0,1-2,2H2a2,2,0,0,1-2-2V6A6,6,0,0,1,6,0Z" stroke="none"/>
        <path d="M6,1.5H32.25A4.5,4.5,0,0,1,36.75,6v4.75a.5.5,0,0,1-.5.5H2a.5.5,0,0,1-.5-.5V6A4.5,4.5,0,0,1,6,1.5Z" fill="none"/>
      </g>
      <g id="Ellipse_109" data-name="Ellipse 109" transform="translate(192.578 1941.141)" fill="#fff" stroke="#49b2f8" stroke-width="3">
        <circle cx="5.18" cy="5.18" r="5.18" stroke="none"/>
        <circle cx="5.18" cy="5.18" r="3.68" fill="none"/>
      </g>
      <g id="Ellipse_110" data-name="Ellipse 110" transform="translate(209.313 1941.141)" fill="#fff" stroke="#49b2f8" stroke-width="3">
        <circle cx="5.18" cy="5.18" r="5.18" stroke="none"/>
        <circle cx="5.18" cy="5.18" r="3.68" fill="none"/>
      </g>
      <text id="YOWHEELS" transform="translate(236 1950)" fill="#49b2f8" font-size="21" font-family="Circe-ExtraBold, Circe" font-weight="800" letter-spacing="0.12em"><tspan x="0" y="0">YOWHEELS</tspan></text>
    </g>
    <rect id="Rectangle_225" data-name="Rectangle 225" width="44.334" height="19.833" rx="1" transform="translate(377.76 1931.972)" fill="#fbd22e"/>
    <rect id="Rectangle_227" data-name="Rectangle 227" width="16.333" height="16.333" rx="1" transform="translate(422.335 1930.339) rotate(45)" fill="#fbd22e"/>
    <rect id="Rectangle_226" data-name="Rectangle 226" width="44.334" height="1.53" transform="translate(390.594 1930.442)" fill="#fff"/>
    <rect id="Rectangle_228" data-name="Rectangle 228" width="44.334" height="2.361" transform="translate(390.594 1951.805)" fill="#fff"/>
    <text id="ТАКСИ" transform="translate(384.76 1944.303)" fill="#09263a" font-size="8" font-family="Circe-Bold, Circe" font-weight="700" letter-spacing="0.12em"><tspan x="0" y="0">ТАКСИ</tspan></text>
  </g>
</svg>
